<svg data-v-423bf9ae="" xmlns="http://www.w3.org/2000/svg" viewBox="0 0 234.39562830861954 181" class="iconAboveSlogan"><!----><defs data-v-423bf9ae=""><linearGradient data-v-423bf9ae="" gradientTransform="rotate(25)" id="842d3441-ebf5-426a-ae0c-69ba97a66258" x1="0%" y1="0%" x2="100%" y2="0%"><stop data-v-423bf9ae="" offset="0%" style="stop-color: rgb(0, 118, 221); stop-opacity: 1;"></stop><stop data-v-423bf9ae="" offset="100%" style="stop-color: rgb(230, 0, 233); stop-opacity: 1;"></stop></linearGradient></defs><!----><g data-v-423bf9ae="" id="87b6a0bc-43ea-4b6a-b876-e262480d3a0c" fill="#ffffff" transform="matrix(4.709576575301315,0,0,4.709576575301315,-2.6844594364651613,85.48037810457856)"><path d="M6.83 13.43C6.71 12.78 6.68 11.63 6.68 10.57L6.68 7.22L6.66 7.22L6.66 7.03C5.95 6.75 4.84 6.61 4.06 6.61C1.79 6.61 0.57 7.94 0.57 10.42C0.57 12.70 1.65 13.57 3.11 13.57C4.19 13.57 4.97 13.08 5.45 11.89C5.47 12.38 5.53 12.87 5.63 13.43ZM3.37 12.52C2.45 12.52 1.86 11.93 1.86 10.35C1.86 8.50 2.66 7.59 4.10 7.59C4.49 7.59 4.94 7.64 5.40 7.73L5.40 7.88C5.35 11.83 4.33 12.52 3.37 12.52ZM9.45 8.33C9.45 7.83 9.80 7.60 10.65 7.60C11.16 7.60 11.90 7.69 12.25 7.84L12.25 6.85C11.94 6.72 11.28 6.61 10.58 6.61C8.89 6.61 8.22 7.24 8.22 8.27C8.22 9.31 8.82 9.76 10.05 10.46C11.07 11.06 11.31 11.37 11.31 11.76C11.31 12.36 10.70 12.59 9.91 12.59C9.34 12.59 8.78 12.50 8.13 12.29L8.13 13.29C8.60 13.45 9.37 13.57 10.09 13.57C11.33 13.57 12.54 13.20 12.54 11.75C12.54 10.60 11.87 10.18 10.89 9.60C9.81 8.96 9.45 8.75 9.45 8.33ZM13.92 3.72L13.92 5.10L15.19 5.10L15.19 3.72ZM13.92 6.75L13.92 11.56C13.92 12.85 14.39 13.47 15.74 13.47C15.89 13.47 16.03 13.45 16.18 13.44L16.18 12.43C16.04 12.46 15.95 12.46 15.82 12.46C15.34 12.46 15.19 12.14 15.19 11.54L15.19 6.75ZM23.09 13.43L23.09 6.75L21.83 6.75L21.83 8.13C21.80 9.97 21.32 12.50 19.64 12.50C18.90 12.50 18.54 12.08 18.54 11.02L18.54 6.75L17.28 6.75L17.28 11.27C17.28 12.71 17.84 13.55 19.29 13.55C20.61 13.55 21.41 12.91 21.85 11.77L21.98 13.43ZM26.24 13.43L26.24 12.82C26.26 10.15 26.99 7.66 28.57 7.66C29.25 7.66 29.54 8.13 29.54 9.31L29.54 13.43L30.79 13.43L30.79 8.90C30.79 7.46 30.28 6.61 28.98 6.61C27.59 6.61 26.71 7.41 26.21 8.85L26.18 6.75L24.96 6.75L24.96 13.43ZM35.34 6.61C33.39 6.61 32.23 7.74 32.23 9.95C32.23 12.33 33.64 13.57 35.88 13.57C36.64 13.57 37.46 13.44 38.09 13.19L38.09 12.15C37.31 12.40 36.44 12.52 35.85 12.52C34.44 12.52 33.61 11.84 33.46 10.40L38.21 10.40L38.21 9.83C38.21 7.71 37.17 6.61 35.34 6.61ZM35.32 7.56C36.41 7.56 36.96 8.40 36.96 9.53L33.45 9.53C33.56 8.18 34.29 7.56 35.32 7.56ZM40.96 13.43L40.96 13.02C40.96 9.24 42.11 7.77 43.40 7.77C43.61 7.77 43.79 7.78 43.95 7.83L43.95 6.66C43.76 6.62 43.61 6.61 43.36 6.61C42.14 6.61 41.37 7.62 40.94 9.09L40.91 6.75L39.69 6.75L39.69 13.43ZM46.51 15.46C45.77 15.46 45.00 15.37 44.44 15.20L44.44 16.20C44.98 16.37 45.82 16.46 46.55 16.46C48.97 16.46 50.34 15.41 50.34 12.64L50.34 7.03C49.64 6.75 48.52 6.61 47.75 6.61C45.47 6.61 44.25 7.94 44.25 10.42C44.25 12.70 45.35 13.57 46.79 13.57C47.84 13.57 48.61 13.10 49.08 12.00L49.08 12.63C49.08 14.80 48.08 15.46 46.51 15.46ZM47.05 12.52C46.14 12.52 45.54 11.93 45.54 10.35C45.54 8.50 46.35 7.59 47.80 7.59C48.19 7.59 48.62 7.64 49.08 7.73L49.08 7.88C49.03 11.83 48.01 12.52 47.05 12.52Z"></path></g><!----><g data-v-423bf9ae="" id="f7272ad4-2b40-4391-b934-bedd73d3a5ad" transform="matrix(1.0189082008494184,0,0,1.0189082008494184,66.94373073942728,-5.111939525794945)" stroke="none" fill="#ffffff"><path d="M50 94.25c5.497 0 9.954-4.459 9.954-9.953H40.045c0 5.494 4.457 9.953 9.955 9.953zM85.381 68.205h-1.957c0-27.001-12.176-49.379-28.105-53.514a5.934 5.934 0 0 0 .699-2.757 6.018 6.018 0 0 0-12.036 0c0 1 .267 1.929.698 2.757-15.93 4.135-28.104 26.513-28.104 53.514h-1.958a4.781 4.781 0 0 0 0 9.562h70.763a4.782 4.782 0 0 0 0-9.562z"></path></g><!----><g data-v-423bf9ae="" id="7daa11e1-8e41-4c80-b472-ca605b1987f3" fill="#ffffff" transform="matrix(0.5153062417606459,0,0,0.5153062417606459,30.358527062267342,204.49688090596084)"><path d="M10.00 13.22L9.53 13.17L5.75 3.91L5.04 3.91L1.25 13.17L0.80 13.22C0.62 13.23 0.53 13.33 0.53 13.50L0.53 13.82L0.98 13.82L1.27 13.82L1.53 13.82L1.62 13.82L2.94 13.82L2.94 13.50C2.94 13.31 2.83 13.23 2.62 13.22C2.60 13.22 2.58 13.20 2.53 13.20C2.49 13.20 2.44 13.19 2.34 13.19C2.24 13.19 2.11 13.19 1.97 13.17L2.95 10.75L3.02 10.57L7.76 10.57L7.83 10.75L8.81 13.17C8.67 13.19 8.55 13.19 8.46 13.19C8.36 13.19 8.29 13.20 8.25 13.20C8.20 13.20 8.18 13.22 8.16 13.22C7.95 13.23 7.84 13.31 7.84 13.50L7.84 13.82L9.16 13.82L9.25 13.82L9.52 13.82L9.80 13.82L10.26 13.82L10.26 13.50C10.26 13.33 10.18 13.23 10.00 13.22ZM5.19 5.22C5.22 5.14 5.26 5.04 5.29 4.94C5.32 4.84 5.36 4.75 5.39 4.63C5.42 4.75 5.46 4.84 5.49 4.94C5.52 5.04 5.56 5.12 5.59 5.21L7.55 10.04L3.25 10.04ZM24.72 4.68C24.14 4.17 23.25 3.92 22.09 3.92L19.68 3.92L18.49 3.92L18.49 4.19C18.49 4.34 18.59 4.42 18.77 4.44L18.91 4.44C18.98 4.44 19.08 4.45 19.22 4.45C19.36 4.45 19.52 4.47 19.68 4.47L19.68 13.26C19.52 13.26 19.36 13.27 19.22 13.27C19.08 13.27 18.98 13.29 18.91 13.29L18.77 13.29C18.59 13.30 18.49 13.38 18.49 13.54L18.49 13.82L19.68 13.82L20.40 13.82L21.57 13.82L21.57 13.54C21.57 13.38 21.48 13.30 21.29 13.29L21.17 13.29C21.10 13.29 20.99 13.27 20.85 13.27C20.71 13.27 20.57 13.26 20.40 13.26L20.40 9.83L22.09 9.83C22.64 9.83 23.13 9.74 23.56 9.60C24.00 9.45 24.36 9.25 24.67 8.99C24.98 8.72 25.21 8.41 25.37 8.05C25.54 7.69 25.61 7.29 25.61 6.86C25.61 5.92 25.31 5.18 24.72 4.68ZM24.70 7.81C24.57 8.11 24.39 8.36 24.15 8.57C23.91 8.78 23.62 8.95 23.27 9.07C22.92 9.20 22.53 9.25 22.09 9.25L20.40 9.25L20.40 4.48L22.09 4.48C23.02 4.48 23.72 4.69 24.19 5.10C24.65 5.50 24.89 6.09 24.89 6.85C24.89 7.20 24.82 7.52 24.70 7.81ZM40.03 4.68C39.44 4.17 38.56 3.92 37.39 3.92L34.99 3.92L33.80 3.92L33.80 4.19C33.80 4.34 33.89 4.42 34.08 4.44L34.22 4.44C34.29 4.44 34.38 4.45 34.52 4.45C34.66 4.45 34.82 4.47 34.99 4.47L34.99 13.26C34.82 13.26 34.66 13.27 34.52 13.27C34.38 13.27 34.29 13.29 34.22 13.29L34.08 13.29C33.89 13.30 33.80 13.38 33.80 13.54L33.80 13.82L34.99 13.82L35.70 13.82L36.88 13.82L36.88 13.54C36.88 13.38 36.78 13.30 36.60 13.29L36.47 13.29C36.40 13.29 36.29 13.27 36.15 13.27C36.01 13.27 35.87 13.26 35.70 13.26L35.70 9.83L37.39 9.83C37.94 9.83 38.43 9.74 38.86 9.60C39.30 9.45 39.66 9.25 39.97 8.99C40.28 8.72 40.52 8.41 40.67 8.05C40.84 7.69 40.91 7.29 40.91 6.86C40.91 5.92 40.61 5.18 40.03 4.68ZM40.00 7.81C39.87 8.11 39.69 8.36 39.45 8.57C39.21 8.78 38.92 8.95 38.57 9.07C38.22 9.20 37.83 9.25 37.39 9.25L35.70 9.25L35.70 4.48L37.39 4.48C38.32 4.48 39.02 4.69 39.49 5.10C39.96 5.50 40.19 6.09 40.19 6.85C40.19 7.20 40.12 7.52 40.00 7.81ZM68.47 6.80C68.25 6.19 67.93 5.68 67.51 5.25C67.09 4.82 66.60 4.48 66.02 4.26C65.45 4.03 64.79 3.92 64.09 3.92L60.66 3.92L59.47 3.92L59.47 4.19C59.47 4.34 59.57 4.42 59.75 4.44L59.89 4.44C59.96 4.44 60.06 4.45 60.20 4.45C60.34 4.45 60.49 4.47 60.66 4.47L60.66 13.26C60.49 13.26 60.34 13.27 60.20 13.27C60.06 13.27 59.96 13.29 59.89 13.29L59.75 13.29C59.57 13.30 59.47 13.38 59.47 13.54L59.47 13.82L60.66 13.82L64.09 13.82C64.79 13.82 65.45 13.71 66.02 13.48C66.60 13.26 67.09 12.92 67.51 12.49C67.93 12.05 68.25 11.54 68.47 10.92C68.70 10.30 68.82 9.63 68.82 8.86C68.82 8.11 68.70 7.42 68.47 6.80ZM67.79 10.72C67.59 11.27 67.34 11.72 66.99 12.10C66.64 12.47 66.22 12.75 65.73 12.95C65.24 13.15 64.69 13.24 64.09 13.24L61.38 13.24L61.38 4.49L64.09 4.49C64.69 4.49 65.24 4.59 65.73 4.79C66.22 4.98 66.64 5.26 66.99 5.64C67.34 6.02 67.59 6.47 67.79 7.01C67.98 7.56 68.08 8.18 68.08 8.86C68.08 9.56 67.98 10.18 67.79 10.72ZM78.30 3.92L77.11 3.92L77.11 4.19C77.11 4.34 77.21 4.42 77.39 4.44L77.53 4.44C77.60 4.44 77.70 4.45 77.84 4.45C77.98 4.45 78.13 4.47 78.30 4.47L78.30 13.26C78.13 13.26 77.98 13.27 77.84 13.27C77.70 13.27 77.60 13.29 77.53 13.29L77.39 13.29C77.21 13.30 77.13 13.38 77.13 13.54L77.13 13.82L78.30 13.82L84.24 13.82L84.24 13.22L84.24 11.76L83.89 11.76C83.69 11.76 83.61 11.89 83.59 12.11C83.59 12.14 83.58 12.19 83.58 12.29C83.58 12.39 83.58 12.53 83.57 12.74C83.55 12.95 83.54 13.09 83.54 13.22L79.02 13.22L79.02 9.09L82.96 9.09L82.96 8.51L79.02 8.51L79.02 4.51L83.54 4.51C83.57 5.12 83.59 5.50 83.59 5.63C83.61 5.85 83.69 5.96 83.89 5.96L84.24 5.96L84.24 4.51L84.24 3.92ZM112.49 13.22L112.03 13.17L108.25 3.91L107.53 3.91L103.74 13.17L103.29 13.22C103.11 13.23 103.03 13.33 103.03 13.50L103.03 13.82L103.47 13.82L103.77 13.82L104.02 13.82L104.12 13.82L105.43 13.82L105.43 13.50C105.43 13.31 105.32 13.23 105.11 13.22C105.10 13.22 105.07 13.20 105.03 13.20C104.99 13.20 104.93 13.19 104.83 13.19C104.73 13.19 104.61 13.19 104.47 13.17L105.45 10.75L105.52 10.57L110.25 10.57L110.32 10.75L111.30 13.17C111.16 13.19 111.05 13.19 110.95 13.19C110.85 13.19 110.78 13.20 110.74 13.20C110.70 13.20 110.67 13.22 110.66 13.22C110.45 13.23 110.33 13.31 110.33 13.50L110.33 13.82L111.65 13.82L111.75 13.82L112.01 13.82L112.29 13.82L112.76 13.82L112.76 13.50C112.76 13.33 112.67 13.23 112.49 13.22ZM107.69 5.22C107.72 5.14 107.76 5.04 107.79 4.94C107.81 4.84 107.86 4.75 107.88 4.63C107.91 4.75 107.95 4.84 107.98 4.94C108.01 5.04 108.05 5.12 108.08 5.21L110.04 10.04L105.74 10.04ZM126.71 9.91C126.57 9.65 126.38 9.39 126.14 9.21C125.90 9.03 125.65 8.88 125.36 8.75C125.06 8.62 124.74 8.51 124.43 8.41C124.12 8.32 123.82 8.20 123.52 8.11C123.23 7.99 122.96 7.87 122.72 7.71C122.49 7.56 122.30 7.38 122.16 7.15C122.02 6.93 121.94 6.65 121.94 6.31C121.94 6.06 122.00 5.82 122.09 5.59C122.19 5.35 122.33 5.15 122.51 4.97C122.70 4.79 122.92 4.65 123.20 4.55C123.48 4.45 123.79 4.40 124.15 4.40C124.82 4.40 125.44 4.51 126 4.75C126.04 5.54 126.07 5.99 126.07 6.06C126.08 6.29 126.17 6.41 126.36 6.41L126.70 6.41L126.70 4.38C125.82 4.00 124.98 3.81 124.15 3.81C123.69 3.81 123.28 3.88 122.92 4.02C122.56 4.16 122.26 4.34 122.02 4.58C121.79 4.82 121.59 5.08 121.46 5.39C121.34 5.70 121.28 6.02 121.28 6.36C121.28 6.78 121.35 7.14 121.49 7.42C121.63 7.70 121.83 7.92 122.07 8.12C122.30 8.32 122.56 8.46 122.85 8.58C123.14 8.71 123.47 8.82 123.77 8.92C124.08 9.02 124.38 9.11 124.68 9.21C124.98 9.31 125.24 9.45 125.48 9.60C125.72 9.76 125.90 9.94 126.04 10.16C126.18 10.39 126.25 10.68 126.25 11.03C126.25 11.35 126.20 11.66 126.08 11.94C125.97 12.22 125.82 12.46 125.61 12.67C125.40 12.88 125.13 13.05 124.82 13.16C124.52 13.29 124.17 13.33 123.77 13.33C122.99 13.33 122.33 13.20 121.80 12.95C121.79 12.75 121.79 12.54 121.77 12.32C121.76 12.10 121.76 11.91 121.74 11.76C121.73 11.61 121.73 11.52 121.73 11.51C121.72 11.28 121.62 11.17 121.42 11.17L121.09 11.17L121.09 13.02L121.09 13.20L121.09 13.38C121.94 13.75 122.82 13.93 123.75 13.93C124.25 13.93 124.70 13.85 125.09 13.69C125.48 13.54 125.82 13.31 126.08 13.05C126.35 12.78 126.57 12.46 126.71 12.10C126.85 11.73 126.92 11.34 126.92 10.92C126.92 10.51 126.85 10.18 126.71 9.91ZM138.00 4.44C138.18 4.42 138.26 4.34 138.26 4.19L138.26 3.91L137.09 3.91L136.37 3.91L135.18 3.91L135.18 4.19C135.18 4.34 135.28 4.42 135.46 4.44L135.60 4.44C135.67 4.44 135.77 4.45 135.91 4.45C136.05 4.45 136.21 4.47 136.37 4.47L136.37 13.26C136.21 13.26 136.05 13.27 135.91 13.27C135.77 13.27 135.67 13.29 135.60 13.29L135.46 13.29C135.28 13.30 135.18 13.38 135.18 13.54L135.18 13.82L136.37 13.82L137.09 13.82L138.26 13.82L138.26 13.54C138.26 13.38 138.18 13.30 138.00 13.29L137.86 13.29C137.79 13.29 137.69 13.27 137.55 13.27C137.41 13.27 137.26 13.26 137.09 13.26L137.09 4.47C137.26 4.47 137.41 4.45 137.55 4.45C137.69 4.45 137.79 4.44 137.86 4.44ZM152.33 9.91C152.19 9.65 152.00 9.39 151.76 9.21C151.52 9.03 151.27 8.88 150.98 8.75C150.68 8.62 150.36 8.51 150.05 8.41C149.74 8.32 149.44 8.20 149.14 8.11C148.85 7.99 148.58 7.87 148.34 7.71C148.11 7.56 147.92 7.38 147.78 7.15C147.64 6.93 147.56 6.65 147.56 6.31C147.56 6.06 147.62 5.82 147.71 5.59C147.81 5.35 147.95 5.15 148.13 4.97C148.32 4.79 148.54 4.65 148.82 4.55C149.10 4.45 149.41 4.40 149.77 4.40C150.44 4.40 151.06 4.51 151.62 4.75C151.66 5.54 151.69 5.99 151.69 6.06C151.70 6.29 151.79 6.41 151.98 6.41L152.32 6.41L152.32 4.38C151.44 4.00 150.60 3.81 149.77 3.81C149.31 3.81 148.90 3.88 148.54 4.02C148.18 4.16 147.88 4.34 147.64 4.58C147.41 4.82 147.21 5.08 147.08 5.39C146.96 5.70 146.90 6.02 146.90 6.36C146.90 6.78 146.97 7.14 147.11 7.42C147.25 7.70 147.45 7.92 147.69 8.12C147.92 8.32 148.18 8.46 148.47 8.58C148.76 8.71 149.09 8.82 149.39 8.92C149.70 9.02 150.00 9.11 150.30 9.21C150.60 9.31 150.86 9.45 151.10 9.60C151.34 9.76 151.52 9.94 151.66 10.16C151.80 10.39 151.87 10.68 151.87 11.03C151.87 11.35 151.82 11.66 151.70 11.94C151.59 12.22 151.44 12.46 151.23 12.67C151.02 12.88 150.75 13.05 150.44 13.16C150.14 13.29 149.79 13.33 149.39 13.33C148.61 13.33 147.95 13.20 147.42 12.95C147.41 12.75 147.41 12.54 147.39 12.32C147.38 12.10 147.38 11.91 147.36 11.76C147.35 11.61 147.35 11.52 147.35 11.51C147.34 11.28 147.24 11.17 147.04 11.17L146.71 11.17L146.71 13.02L146.71 13.20L146.71 13.38C147.56 13.75 148.44 13.93 149.37 13.93C149.87 13.93 150.32 13.85 150.71 13.69C151.10 13.54 151.44 13.31 151.70 13.05C151.97 12.78 152.19 12.46 152.33 12.10C152.47 11.73 152.54 11.34 152.54 10.92C152.54 10.51 152.47 10.18 152.33 9.91ZM168.32 3.92L168.13 3.92L160.83 3.92L160.62 3.92L160.52 3.92L160.52 5.96L160.87 5.96C161.07 5.96 161.15 5.85 161.17 5.63C161.17 5.53 161.20 5.17 161.22 4.52L164.12 4.52L164.12 13.26C163.95 13.26 163.81 13.27 163.67 13.27C163.53 13.27 163.42 13.29 163.35 13.29L163.23 13.29C163.04 13.30 162.95 13.38 162.95 13.54L162.95 13.82L164.12 13.82L164.84 13.82L166.03 13.82L166.03 13.54C166.03 13.38 165.93 13.30 165.75 13.29L165.61 13.29C165.54 13.29 165.44 13.27 165.30 13.27C165.16 13.27 165.00 13.26 164.84 13.26L164.84 4.52L167.72 4.52C167.76 5.24 167.78 5.60 167.78 5.63C167.79 5.85 167.89 5.96 168.08 5.96L168.42 5.96L168.42 3.92ZM177.72 3.92L176.53 3.92L176.53 4.19C176.53 4.34 176.62 4.42 176.81 4.44L176.95 4.44C177.02 4.44 177.11 4.45 177.25 4.45C177.39 4.45 177.55 4.47 177.72 4.47L177.72 13.26C177.55 13.26 177.39 13.27 177.25 13.27C177.11 13.27 177.02 13.29 176.95 13.29L176.81 13.29C176.62 13.30 176.54 13.38 176.54 13.54L176.54 13.82L177.72 13.82L183.65 13.82L183.65 13.22L183.65 11.76L183.30 11.76C183.11 11.76 183.02 11.89 183.01 12.11C183.01 12.14 182.99 12.19 182.99 12.29C182.99 12.39 182.99 12.53 182.98 12.74C182.97 12.95 182.95 13.09 182.95 13.22L178.43 13.22L178.43 9.09L182.38 9.09L182.38 8.51L178.43 8.51L178.43 4.51L182.95 4.51C182.98 5.12 183.01 5.50 183.01 5.63C183.02 5.85 183.11 5.96 183.30 5.96L183.65 5.96L183.65 4.51L183.65 3.92ZM201.07 3.92L200.44 3.92L199.22 3.92L199.22 4.19C199.22 4.34 199.32 4.42 199.50 4.44L199.64 4.44C199.71 4.44 199.82 4.45 199.96 4.45C200.10 4.45 200.27 4.47 200.44 4.47L200.44 12.22C200.44 12.35 200.44 12.49 200.45 12.63L194.04 4.05C194.00 3.99 193.97 3.95 193.93 3.93C193.89 3.92 193.84 3.91 193.77 3.91L193.42 3.91L192.23 3.91L192.23 4.19C192.23 4.34 192.33 4.42 192.51 4.44L192.65 4.44C192.72 4.44 192.82 4.45 192.96 4.45C193.10 4.45 193.26 4.47 193.42 4.47L193.42 13.26C193.26 13.26 193.10 13.27 192.96 13.27C192.82 13.27 192.72 13.29 192.65 13.29L192.51 13.29C192.33 13.30 192.23 13.38 192.23 13.54L192.23 13.82L193.42 13.82L194.04 13.82L195.26 13.82L195.26 13.54C195.26 13.38 195.16 13.30 194.98 13.29L194.84 13.29C194.77 13.29 194.64 13.27 194.50 13.27C194.36 13.27 194.21 13.26 194.04 13.26L194.04 5.49C194.04 5.36 194.04 5.22 194.03 5.08L200.47 13.68C200.54 13.78 200.61 13.82 200.72 13.82L201.07 13.82L201.07 4.47C201.24 4.47 201.38 4.45 201.52 4.45C201.66 4.45 201.77 4.44 201.84 4.44L201.96 4.44C202.15 4.42 202.24 4.34 202.24 4.19L202.24 3.92ZM218.01 12.21C217.98 12.18 217.94 12.15 217.90 12.15C217.87 12.15 217.85 12.15 217.83 12.17C217.81 12.18 217.78 12.21 217.76 12.22C217.56 12.40 217.35 12.56 217.15 12.70C216.96 12.84 216.75 12.94 216.51 13.03C216.27 13.13 216.02 13.20 215.74 13.24C215.46 13.29 215.15 13.31 214.80 13.31C214.24 13.31 213.70 13.22 213.22 13.01C212.73 12.81 212.32 12.52 211.97 12.14C211.62 11.76 211.33 11.28 211.13 10.74C210.94 10.19 210.84 9.56 210.84 8.86C210.84 8.18 210.94 7.56 211.13 7.01C211.34 6.47 211.62 6.01 211.99 5.61C212.35 5.24 212.79 4.94 213.29 4.73C213.79 4.52 214.34 4.42 214.94 4.42C215.84 4.42 216.66 4.56 217.39 4.89C217.43 5.78 217.48 6.30 217.48 6.41C217.49 6.64 217.57 6.75 217.77 6.75L218.11 6.75L218.11 4.51C216.93 4.03 215.87 3.81 214.94 3.81C214.23 3.81 213.58 3.92 212.98 4.17C212.39 4.42 211.86 4.76 211.44 5.21C211.01 5.66 210.69 6.19 210.45 6.80C210.21 7.42 210.10 8.11 210.10 8.86C210.10 9.63 210.22 10.32 210.45 10.95C210.67 11.58 210.99 12.10 211.40 12.54C211.81 12.99 212.30 13.33 212.87 13.57C213.44 13.80 214.06 13.93 214.75 13.93C215.15 13.93 215.53 13.90 215.88 13.83C216.22 13.76 216.54 13.66 216.83 13.54C217.11 13.41 217.38 13.26 217.62 13.09C217.85 12.91 218.08 12.73 218.29 12.50ZM229.11 4.44C229.29 4.42 229.38 4.34 229.38 4.19L229.38 3.91L228.20 3.91L227.49 3.91L226.30 3.91L226.30 4.19C226.30 4.34 226.39 4.42 226.58 4.44L226.72 4.44C226.79 4.44 226.88 4.45 227.02 4.45C227.16 4.45 227.32 4.47 227.49 4.47L227.49 13.26C227.32 13.26 227.16 13.27 227.02 13.27C226.88 13.27 226.79 13.29 226.72 13.29L226.58 13.29C226.39 13.30 226.30 13.38 226.30 13.54L226.30 13.82L227.49 13.82L228.20 13.82L229.38 13.82L229.38 13.54C229.38 13.38 229.29 13.30 229.11 13.29L228.97 13.29C228.90 13.29 228.80 13.27 228.66 13.27C228.52 13.27 228.37 13.26 228.20 13.26L228.20 4.47C228.37 4.47 228.52 4.45 228.66 4.45C228.80 4.45 228.90 4.44 228.97 4.44ZM247.02 13.22L246.55 13.17L242.77 3.91L242.06 3.91L238.27 13.17L237.82 13.22C237.64 13.23 237.55 13.33 237.55 13.50L237.55 13.82L238.00 13.82L238.29 13.82L238.55 13.82L238.64 13.82L239.96 13.82L239.96 13.50C239.96 13.31 239.85 13.23 239.64 13.22C239.62 13.22 239.60 13.20 239.55 13.20C239.51 13.20 239.46 13.19 239.36 13.19C239.26 13.19 239.13 13.19 238.99 13.17L239.97 10.75L240.04 10.57L244.78 10.57L244.85 10.75L245.83 13.17C245.69 13.19 245.57 13.19 245.48 13.19C245.38 13.19 245.31 13.20 245.27 13.20C245.22 13.20 245.20 13.22 245.18 13.22C244.97 13.23 244.86 13.31 244.86 13.50L244.86 13.82L246.18 13.82L246.27 13.82L246.54 13.82L246.82 13.82L247.28 13.82L247.28 13.50C247.28 13.33 247.20 13.23 247.02 13.22ZM242.21 5.22C242.24 5.14 242.28 5.04 242.31 4.94C242.34 4.84 242.38 4.75 242.41 4.63C242.44 4.75 242.48 4.84 242.51 4.94C242.54 5.04 242.58 5.12 242.61 5.21L244.57 10.04L240.27 10.04ZM274.20 3.92L273.49 3.92L272.13 3.92L272.13 4.19C272.13 4.34 272.23 4.42 272.41 4.44L272.58 4.44C272.68 4.44 272.82 4.45 272.99 4.45C273.15 4.45 273.32 4.47 273.49 4.47L273.49 10.04C273.49 10.50 273.42 10.92 273.28 11.33C273.14 11.73 272.94 12.08 272.68 12.38C272.41 12.67 272.10 12.89 271.73 13.06C271.35 13.23 270.93 13.31 270.45 13.31C269.98 13.31 269.54 13.23 269.16 13.06C268.79 12.89 268.46 12.66 268.21 12.36C267.95 12.07 267.76 11.72 267.62 11.33C267.48 10.93 267.41 10.50 267.41 10.04L267.41 4.47C267.58 4.47 267.75 4.45 267.92 4.45C268.09 4.45 268.23 4.44 268.32 4.44L268.49 4.44C268.67 4.42 268.77 4.34 268.77 4.19L268.77 3.92L267.41 3.92L266.70 3.92L265.52 3.92L265.52 4.19C265.52 4.34 265.61 4.42 265.79 4.44L265.93 4.44C266 4.44 266.10 4.45 266.24 4.45C266.38 4.45 266.53 4.47 266.70 4.47L266.70 10.04C266.70 10.58 266.78 11.09 266.95 11.56C267.12 12.04 267.37 12.46 267.69 12.81C268.02 13.16 268.42 13.44 268.88 13.64C269.35 13.83 269.88 13.93 270.45 13.93C271.03 13.93 271.54 13.83 272.01 13.64C272.47 13.44 272.87 13.16 273.20 12.81C273.52 12.46 273.77 12.04 273.94 11.56C274.11 11.09 274.20 10.58 274.20 10.04L274.20 4.47C274.37 4.47 274.51 4.45 274.65 4.45C274.79 4.45 274.90 4.44 274.97 4.44L275.10 4.44C275.28 4.42 275.38 4.34 275.38 4.19L275.38 3.92ZM292.24 3.92L291.61 3.92L290.39 3.92L290.39 4.19C290.39 4.34 290.49 4.42 290.67 4.44L290.81 4.44C290.88 4.44 290.99 4.45 291.13 4.45C291.27 4.45 291.44 4.47 291.61 4.47L291.61 12.22C291.61 12.35 291.61 12.49 291.62 12.63L285.21 4.05C285.17 3.99 285.14 3.95 285.10 3.93C285.05 3.92 285.01 3.91 284.94 3.91L284.59 3.91L283.40 3.91L283.40 4.19C283.40 4.34 283.50 4.42 283.68 4.44L283.82 4.44C283.89 4.44 283.99 4.45 284.13 4.45C284.27 4.45 284.42 4.47 284.59 4.47L284.59 13.26C284.42 13.26 284.27 13.27 284.13 13.27C283.99 13.27 283.89 13.29 283.82 13.29L283.68 13.29C283.50 13.30 283.40 13.38 283.40 13.54L283.40 13.82L284.59 13.82L285.21 13.82L286.43 13.82L286.43 13.54C286.43 13.38 286.33 13.30 286.15 13.29L286.01 13.29C285.94 13.29 285.81 13.27 285.67 13.27C285.53 13.27 285.38 13.26 285.21 13.26L285.21 5.49C285.21 5.36 285.21 5.22 285.19 5.08L291.63 13.68C291.70 13.78 291.77 13.82 291.89 13.82L292.24 13.82L292.24 4.47C292.40 4.47 292.54 4.45 292.68 4.45C292.82 4.45 292.94 4.44 293.01 4.44L293.13 4.44C293.31 4.42 293.41 4.34 293.41 4.19L293.41 3.92ZM302.64 3.92L301.45 3.92L301.45 4.19C301.45 4.34 301.55 4.42 301.73 4.44L301.87 4.44C301.94 4.44 302.04 4.45 302.18 4.45C302.32 4.45 302.47 4.47 302.64 4.47L302.64 13.26C302.47 13.26 302.32 13.27 302.18 13.27C302.04 13.27 301.94 13.29 301.87 13.29L301.73 13.29C301.55 13.30 301.46 13.38 301.46 13.54L301.46 13.82L302.64 13.82L308.57 13.82L308.57 13.22L308.57 11.76L308.22 11.76C308.03 11.76 307.94 11.89 307.93 12.11C307.93 12.14 307.92 12.19 307.92 12.29C307.92 12.39 307.92 12.53 307.90 12.74C307.89 12.95 307.87 13.09 307.87 13.22L303.35 13.22L303.35 9.09L307.30 9.09L307.30 8.51L303.35 8.51L303.35 4.51L307.87 4.51C307.90 5.12 307.93 5.50 307.93 5.63C307.94 5.85 308.03 5.96 308.22 5.96L308.57 5.96L308.57 4.51L308.57 3.92ZM325.15 13.29L325.05 13.29L324.87 13.29C324.79 13.29 324.70 13.27 324.62 13.27L321.65 9.53C321.57 9.42 321.45 9.32 321.34 9.25C321.78 9.21 322.17 9.11 322.52 8.96C322.87 8.81 323.15 8.61 323.40 8.37C323.64 8.13 323.83 7.85 323.96 7.55C324.09 7.24 324.16 6.89 324.16 6.51C324.16 5.66 323.88 5.03 323.32 4.58C322.76 4.14 321.90 3.92 320.75 3.92L318.35 3.92L317.17 3.92L317.17 4.19C317.17 4.34 317.25 4.42 317.44 4.44L317.58 4.44C317.65 4.44 317.74 4.45 317.88 4.45C318.02 4.45 318.18 4.47 318.35 4.47L318.35 13.26C318.18 13.26 318.02 13.27 317.88 13.27C317.74 13.27 317.65 13.29 317.58 13.29L317.44 13.29C317.25 13.30 317.16 13.38 317.16 13.54L317.16 13.82L318.35 13.82L319.06 13.82L320.24 13.82L320.24 13.54C320.24 13.38 320.14 13.30 319.96 13.29L319.82 13.29C319.75 13.29 319.65 13.27 319.51 13.27C319.37 13.27 319.23 13.26 319.06 13.26L319.06 9.34L320.24 9.34C320.43 9.34 320.57 9.35 320.66 9.39C320.74 9.44 320.82 9.52 320.91 9.62L324.09 13.64C324.14 13.71 324.18 13.75 324.24 13.78C324.30 13.80 324.37 13.82 324.44 13.82L324.51 13.82L325.05 13.82L325.42 13.82L325.42 13.54C325.42 13.38 325.33 13.30 325.15 13.29ZM320.66 8.81L319.06 8.81L319.06 4.48L320.75 4.48C321.64 4.48 322.31 4.66 322.77 5.00C323.23 5.33 323.46 5.87 323.46 6.57C323.46 6.92 323.40 7.21 323.27 7.49C323.15 7.77 322.95 7.99 322.71 8.19C322.48 8.39 322.18 8.55 321.83 8.65C321.48 8.75 321.09 8.81 320.66 8.81ZM338.95 9.32L338.95 9.72C338.95 9.76 338.98 9.80 339.01 9.83C339.04 9.86 339.08 9.87 339.14 9.87L341.04 9.87L341.04 12.54C340.82 12.67 340.59 12.78 340.38 12.88C340.17 12.98 339.93 13.08 339.70 13.15C339.46 13.22 339.19 13.27 338.91 13.30C338.63 13.33 338.32 13.34 337.99 13.34C337.37 13.34 336.81 13.24 336.31 13.03C335.80 12.82 335.37 12.53 335.01 12.15C334.64 11.77 334.36 11.30 334.17 10.74C333.97 10.18 333.86 9.56 333.86 8.86C333.86 8.18 333.97 7.56 334.17 7.01C334.36 6.47 334.64 5.99 335.01 5.61C335.37 5.24 335.82 4.94 336.34 4.73C336.85 4.52 337.43 4.42 338.07 4.42C339.25 4.42 340.19 4.58 340.87 4.90C340.91 5.81 340.94 6.31 340.94 6.41C340.96 6.64 341.05 6.75 341.25 6.75L341.59 6.75L341.59 4.51C341.15 4.31 340.59 4.14 339.89 4.00C339.19 3.86 338.60 3.81 338.10 3.81C337.34 3.81 336.66 3.92 336.04 4.16C335.43 4.40 334.91 4.75 334.47 5.18C334.04 5.61 333.72 6.15 333.48 6.78C333.24 7.39 333.13 8.09 333.13 8.86C333.13 9.63 333.24 10.32 333.48 10.95C333.72 11.58 334.04 12.10 334.46 12.54C334.88 12.99 335.40 13.33 335.99 13.57C336.57 13.80 337.22 13.93 337.93 13.93C338.35 13.93 338.73 13.90 339.08 13.86C339.43 13.80 339.75 13.73 340.06 13.65C340.37 13.55 340.65 13.44 340.91 13.30C341.18 13.16 341.43 13.01 341.68 12.84L341.68 9.32Z"></path></g></svg>